<svg version="1.1" viewBox="0.0 0.0 4550.0 1750.0" fill="none" stroke="none" stroke-linecap="square" stroke-miterlimit="10" xmlns:xlink="http://www.w3.org/1999/xlink" xmlns="http://www.w3.org/2000/svg"><clipPath id="g31a418cdf5e_0_71.0"><path d="m0 0l4550.0 0l0 1750.0l-4550.0 0l0 -1750.0z" clip-rule="nonzero"/></clipPath><g clip-path="url(#g31a418cdf5e_0_71.0)"><path fill="#ffffff" fill-opacity="0.0" d="m0 0l4550.0 0l0 1750.0l-4550.0 0z" fill-rule="evenodd"/><path fill="#000000" fill-opacity="0.0" d="m-321.8819 81.83465c90.926956 54.219887 345.52188 275.97318 545.5617 325.31927c200.03981 49.34613 428.22748 -103.316864 654.6771 -29.242584c226.4497 74.07428 472.15662 473.68826 704.021 473.68826c231.86438 0 453.62732 -473.68826 687.1653 -473.68826c233.53809 0 479.4707 473.68826 714.063 473.68826c234.59229 0 419.99365 -429.6623 693.49097 -473.68826c273.4973 -44.02597 789.57764 174.61032 947.49316 209.53238" fill-rule="evenodd"/><path stroke="#c2c5b4" stroke-width="16.0" stroke-linejoin="round" stroke-linecap="butt" d="m-321.8819 81.83465c90.926956 54.219887 345.52188 275.97318 545.5617 325.31927c200.03981 49.34613 428.22748 -103.316864 654.6771 -29.242584c226.4497 74.07428 472.15662 473.68826 704.021 473.68826c231.86438 0 453.62732 -473.68826 687.1653 -473.68826c233.53809 0 479.4707 473.68826 714.063 473.68826c234.59229 0 419.99365 -429.6623 693.49097 -473.68826c273.4973 -44.02597 789.57764 174.61032 947.49316 209.53238" fill-rule="evenodd"/></g></svg>