<svg version="1.1" viewBox="0.0 0.0 4550.0 1750.0" fill="none" stroke="none" stroke-linecap="square" stroke-miterlimit="10" xmlns:xlink="http://www.w3.org/1999/xlink" xmlns="http://www.w3.org/2000/svg"><clipPath id="g31a418cdf5e_0_71.0"><path d="m0 0l4550.0 0l0 1750.0l-4550.0 0l0 -1750.0z" clip-rule="nonzero"/></clipPath><g clip-path="url(#g31a418cdf5e_0_71.0)"><path fill="#ffffff" fill-opacity="0.0" d="m0 0l4550.0 0l0 1750.0l-4550.0 0z" fill-rule="evenodd"/><path fill="#000000" fill-opacity="0.0" d="m-321.8819 81.83465c90.926956 80.92519 345.52188 411.90024 545.5617 485.55115c200.03981 73.65094 428.22748 -154.20425 654.6771 -43.64563c226.4497 110.55859 472.15662 706.9974 704.021 706.9974c231.86438 0 453.62732 -706.9974 687.1653 -706.9974c233.53809 0 479.4707 706.9974 714.063 706.9974c234.59229 0 419.99365 -641.287 693.49097 -706.9974c273.4973 -65.71042 789.57764 260.61243 947.49316 312.73486" fill-rule="evenodd"/><path stroke="#c2c5b4" stroke-width="16.0" stroke-linejoin="round" stroke-linecap="butt" d="m-321.8819 81.83465c90.926956 80.92519 345.52188 411.90024 545.5617 485.55115c200.03981 73.65094 428.22748 -154.20425 654.6771 -43.64563c226.4497 110.55859 472.15662 706.9974 704.021 706.9974c231.86438 0 453.62732 -706.9974 687.1653 -706.9974c233.53809 0 479.4707 706.9974 714.063 706.9974c234.59229 0 419.99365 -641.287 693.49097 -706.9974c273.4973 -65.71042 789.57764 260.61243 947.49316 312.73486" fill-rule="evenodd"/></g></svg>